<mxfile host="app.diagrams.net" modified="2023-07-04T02:35:39.918Z" agent="Mozilla/5.0 (Windows NT 10.0; Win64; x64) AppleWebKit/537.36 (KHTML, like Gecko) Chrome/114.0.0.0 Safari/537.36" etag="Oa5g079zyLokVmY-uR_-" version="21.5.2" type="device">
  <diagram name="페이지-1" id="nar-KqlG7AT8t_ZASXwC">
    <mxGraphModel dx="1434" dy="2085" grid="0" gridSize="10" guides="1" tooltips="1" connect="1" arrows="1" fold="1" page="1" pageScale="1" pageWidth="827" pageHeight="1169" background="#FFFFFF" math="0" shadow="0">
      <root>
        <mxCell id="0" />
        <mxCell id="1" parent="0" />
        <mxCell id="bn3xOSbEwSGdqI_6shRr-1" value="사용자" style="shape=umlActor;verticalLabelPosition=bottom;verticalAlign=top;html=1;outlineConnect=0;" parent="1" vertex="1">
          <mxGeometry x="30" y="10" width="30" height="60" as="geometry" />
        </mxCell>
        <mxCell id="bn3xOSbEwSGdqI_6shRr-4" value="회원가입/탈퇴" style="rounded=0;whiteSpace=wrap;html=1;" parent="1" vertex="1">
          <mxGeometry x="140" y="40" width="120" height="40" as="geometry" />
        </mxCell>
        <mxCell id="bn3xOSbEwSGdqI_6shRr-5" value="가입" style="rounded=0;whiteSpace=wrap;html=1;" parent="1" vertex="1">
          <mxGeometry x="320" y="40" width="120" height="40" as="geometry" />
        </mxCell>
        <mxCell id="bn3xOSbEwSGdqI_6shRr-6" value="탈퇴" style="rounded=0;whiteSpace=wrap;html=1;" parent="1" vertex="1">
          <mxGeometry x="500" y="40" width="120" height="40" as="geometry" />
        </mxCell>
        <mxCell id="bn3xOSbEwSGdqI_6shRr-7" value="DB검수" style="rounded=0;whiteSpace=wrap;html=1;" parent="1" vertex="1">
          <mxGeometry x="680" y="40" width="120" height="40" as="geometry" />
        </mxCell>
        <mxCell id="bn3xOSbEwSGdqI_6shRr-9" value="" style="endArrow=none;dashed=1;html=1;dashPattern=1 3;strokeWidth=2;rounded=0;" parent="1" edge="1">
          <mxGeometry width="50" height="50" relative="1" as="geometry">
            <mxPoint x="200" y="720" as="sourcePoint" />
            <mxPoint x="200.17" y="80" as="targetPoint" />
          </mxGeometry>
        </mxCell>
        <mxCell id="bn3xOSbEwSGdqI_6shRr-10" value="" style="endArrow=none;dashed=1;html=1;dashPattern=1 3;strokeWidth=2;rounded=0;" parent="1" edge="1">
          <mxGeometry width="50" height="50" relative="1" as="geometry">
            <mxPoint x="380" y="720" as="sourcePoint" />
            <mxPoint x="380.40999999999997" y="81" as="targetPoint" />
          </mxGeometry>
        </mxCell>
        <mxCell id="bn3xOSbEwSGdqI_6shRr-11" value="" style="endArrow=none;dashed=1;html=1;dashPattern=1 3;strokeWidth=2;rounded=0;" parent="1" edge="1">
          <mxGeometry width="50" height="50" relative="1" as="geometry">
            <mxPoint x="561" y="720" as="sourcePoint" />
            <mxPoint x="561.41" y="80" as="targetPoint" />
          </mxGeometry>
        </mxCell>
        <mxCell id="bn3xOSbEwSGdqI_6shRr-12" value="" style="endArrow=none;dashed=1;html=1;dashPattern=1 3;strokeWidth=2;rounded=0;" parent="1" edge="1">
          <mxGeometry width="50" height="50" relative="1" as="geometry">
            <mxPoint x="740" y="720" as="sourcePoint" />
            <mxPoint x="739.29" y="80" as="targetPoint" />
          </mxGeometry>
        </mxCell>
        <mxCell id="bn3xOSbEwSGdqI_6shRr-13" value="" style="endArrow=classic;html=1;rounded=0;" parent="1" edge="1">
          <mxGeometry width="50" height="50" relative="1" as="geometry">
            <mxPoint x="46" y="157" as="sourcePoint" />
            <mxPoint x="200" y="157" as="targetPoint" />
          </mxGeometry>
        </mxCell>
        <mxCell id="bn3xOSbEwSGdqI_6shRr-14" value="" style="endArrow=none;dashed=1;html=1;dashPattern=1 3;strokeWidth=2;rounded=0;" parent="1" edge="1">
          <mxGeometry width="50" height="50" relative="1" as="geometry">
            <mxPoint x="45" y="720" as="sourcePoint" />
            <mxPoint x="45.46999999999998" y="90" as="targetPoint" />
          </mxGeometry>
        </mxCell>
        <mxCell id="bn3xOSbEwSGdqI_6shRr-16" value="&lt;b&gt;insert(Singid, Singpw)&lt;br&gt;2 : 신규 ID와 PW,&amp;nbsp; DB 저장.&lt;/b&gt;" style="text;html=1;strokeColor=none;fillColor=none;align=left;verticalAlign=middle;whiteSpace=wrap;rounded=0;" parent="1" vertex="1">
          <mxGeometry x="201" y="201" width="182" height="41" as="geometry" />
        </mxCell>
        <mxCell id="bn3xOSbEwSGdqI_6shRr-17" value="" style="endArrow=classic;html=1;rounded=0;" parent="1" edge="1">
          <mxGeometry width="50" height="50" relative="1" as="geometry">
            <mxPoint x="200" y="239" as="sourcePoint" />
            <mxPoint x="380" y="239" as="targetPoint" />
          </mxGeometry>
        </mxCell>
        <mxCell id="bn3xOSbEwSGdqI_6shRr-18" value="&lt;b&gt;1 : 신규 사용자 ID와 PW를 입력.&lt;/b&gt;" style="text;html=1;strokeColor=none;fillColor=none;align=left;verticalAlign=middle;whiteSpace=wrap;rounded=0;" parent="1" vertex="1">
          <mxGeometry x="45" y="124" width="184" height="41" as="geometry" />
        </mxCell>
        <mxCell id="d8bguz7fke7EoX_qLzaQ-1" value="&lt;b&gt;login() 클래스&lt;br&gt;1 : 사용자 ID와 PW를 입력한다.&lt;/b&gt;" style="text;html=1;strokeColor=none;fillColor=none;align=left;verticalAlign=middle;whiteSpace=wrap;rounded=0;" parent="1" vertex="1">
          <mxGeometry x="41.5" y="-68" width="182" height="41" as="geometry" />
        </mxCell>
        <mxCell id="d8bguz7fke7EoX_qLzaQ-2" value="" style="endArrow=classic;html=1;rounded=0;" parent="1" edge="1">
          <mxGeometry width="50" height="50" relative="1" as="geometry">
            <mxPoint x="296" y="-57" as="sourcePoint" />
            <mxPoint x="450" y="-57" as="targetPoint" />
          </mxGeometry>
        </mxCell>
        <mxCell id="s1jgwzO55PEVdqXO1m6F-1" value="" style="endArrow=block;dashed=1;endFill=0;endSize=12;html=1;rounded=0;" edge="1" parent="1">
          <mxGeometry width="160" relative="1" as="geometry">
            <mxPoint x="740" y="407" as="sourcePoint" />
            <mxPoint x="560" y="407" as="targetPoint" />
          </mxGeometry>
        </mxCell>
        <mxCell id="s1jgwzO55PEVdqXO1m6F-2" value="" style="curved=1;endArrow=classic;html=1;rounded=0;" edge="1" parent="1">
          <mxGeometry width="50" height="50" relative="1" as="geometry">
            <mxPoint x="690" y="-27" as="sourcePoint" />
            <mxPoint x="690" y="-118" as="targetPoint" />
            <Array as="points">
              <mxPoint x="755" y="-8" />
              <mxPoint x="810" y="-55" />
              <mxPoint x="772" y="-113" />
              <mxPoint x="732" y="-123" />
            </Array>
          </mxGeometry>
        </mxCell>
        <mxCell id="s1jgwzO55PEVdqXO1m6F-3" value="" style="endArrow=classic;html=1;rounded=0;" edge="1" parent="1">
          <mxGeometry width="50" height="50" relative="1" as="geometry">
            <mxPoint x="46" y="315" as="sourcePoint" />
            <mxPoint x="562" y="315" as="targetPoint" />
          </mxGeometry>
        </mxCell>
        <mxCell id="s1jgwzO55PEVdqXO1m6F-4" value="&lt;b&gt;delete(strId2, strId3)&lt;br&gt;3 : 탈퇴 사용자 ID와 PW를 입력한다.&lt;/b&gt;" style="text;html=1;strokeColor=none;fillColor=none;align=left;verticalAlign=middle;whiteSpace=wrap;rounded=0;" vertex="1" parent="1">
          <mxGeometry x="382" y="276" width="218" height="41" as="geometry" />
        </mxCell>
        <mxCell id="s1jgwzO55PEVdqXO1m6F-6" value="" style="endArrow=classic;html=1;rounded=0;" edge="1" parent="1">
          <mxGeometry width="50" height="50" relative="1" as="geometry">
            <mxPoint x="564" y="554" as="sourcePoint" />
            <mxPoint x="739" y="554" as="targetPoint" />
          </mxGeometry>
        </mxCell>
        <mxCell id="s1jgwzO55PEVdqXO1m6F-7" value="&lt;b style=&quot;border-color: var(--border-color);&quot;&gt;rs.getRow() != 0 //&amp;nbsp;&lt;/b&gt;&lt;b&gt;getText().equals(pwd)&lt;br&gt;4-3 : DB의 ID와 PW가 같을 때&amp;nbsp;&lt;/b&gt;" style="text;html=1;strokeColor=none;fillColor=none;align=left;verticalAlign=middle;whiteSpace=wrap;rounded=0;" vertex="1" parent="1">
          <mxGeometry x="561" y="515" width="263" height="41" as="geometry" />
        </mxCell>
        <mxCell id="s1jgwzO55PEVdqXO1m6F-8" value="&lt;b&gt;rs.getRow() == 0&lt;br&gt;4-1 : DB에 ID가 없을 때 =&amp;gt; 에러팝업 / 재입력&lt;/b&gt;" style="text;html=1;strokeColor=none;fillColor=none;align=left;verticalAlign=middle;whiteSpace=wrap;rounded=0;" vertex="1" parent="1">
          <mxGeometry x="561" y="365" width="270" height="41" as="geometry" />
        </mxCell>
        <mxCell id="s1jgwzO55PEVdqXO1m6F-9" value="" style="endArrow=block;dashed=1;endFill=0;endSize=12;html=1;rounded=0;" edge="1" parent="1">
          <mxGeometry width="160" relative="1" as="geometry">
            <mxPoint x="680" y="-57" as="sourcePoint" />
            <mxPoint x="500" y="-57" as="targetPoint" />
          </mxGeometry>
        </mxCell>
        <mxCell id="s1jgwzO55PEVdqXO1m6F-10" value="" style="endArrow=block;dashed=1;endFill=0;endSize=12;html=1;rounded=0;" edge="1" parent="1">
          <mxGeometry width="160" relative="1" as="geometry">
            <mxPoint x="740.5" y="481" as="sourcePoint" />
            <mxPoint x="560.5" y="481" as="targetPoint" />
          </mxGeometry>
        </mxCell>
        <mxCell id="s1jgwzO55PEVdqXO1m6F-12" value="" style="endArrow=classic;startArrow=classic;html=1;rounded=0;" edge="1" parent="1">
          <mxGeometry width="50" height="50" relative="1" as="geometry">
            <mxPoint x="357" y="-110" as="sourcePoint" />
            <mxPoint x="413" y="-110" as="targetPoint" />
          </mxGeometry>
        </mxCell>
        <mxCell id="s1jgwzO55PEVdqXO1m6F-14" value="" style="endArrow=classic;startArrow=classic;html=1;rounded=0;" edge="1" parent="1">
          <mxGeometry width="50" height="50" relative="1" as="geometry">
            <mxPoint x="622" y="59.5" as="sourcePoint" />
            <mxPoint x="678" y="59.5" as="targetPoint" />
          </mxGeometry>
        </mxCell>
        <mxCell id="s1jgwzO55PEVdqXO1m6F-15" value="&lt;b&gt;rs.getRow() != 0&lt;br&gt;4-2 : DB와 PW가 다를 때 =&amp;gt; 에러팝업 / 재입력&lt;/b&gt;" style="text;html=1;strokeColor=none;fillColor=none;align=left;verticalAlign=middle;whiteSpace=wrap;rounded=0;" vertex="1" parent="1">
          <mxGeometry x="561" y="438" width="270" height="41" as="geometry" />
        </mxCell>
        <mxCell id="s1jgwzO55PEVdqXO1m6F-17" value="" style="endArrow=classic;html=1;rounded=0;" edge="1" parent="1">
          <mxGeometry width="50" height="50" relative="1" as="geometry">
            <mxPoint x="742" y="630" as="sourcePoint" />
            <mxPoint x="825" y="630" as="targetPoint" />
          </mxGeometry>
        </mxCell>
        <mxCell id="s1jgwzO55PEVdqXO1m6F-18" value="&lt;b&gt;5 : ID삭제&lt;/b&gt;" style="text;html=1;strokeColor=none;fillColor=none;align=left;verticalAlign=middle;whiteSpace=wrap;rounded=0;" vertex="1" parent="1">
          <mxGeometry x="740" y="596" width="85" height="41" as="geometry" />
        </mxCell>
      </root>
    </mxGraphModel>
  </diagram>
</mxfile>
